<svg xmlns="http://www.w3.org/2000/svg" viewBox="0 0 30 30"><path fill="#7289DA" d="M30 15a15 15 0 1 1-30 0 15 15 0 0 1 30 0Z"/><path fill="#fff" d="M20.17 8.25H9.83c-.87 0-1.58.69-1.58 1.54v10.14c0 .86.71 1.55 1.58 1.55h8.75l-.4-1.39.98.9.93.84 1.66 1.42V9.79c0-.85-.71-1.54-1.58-1.54Zm-2.98 9.8-.5-.61c1-.28 1.39-.9 1.39-.9a5.19 5.19 0 0 1-2 .76 5.56 5.56 0 0 1-3.14-.32 4.59 4.59 0 0 1-.56-.25l-.07-.04-.03-.03-.22-.12s.37.6 1.35.88l-.52.63c-1.7-.06-2.35-1.14-2.35-1.14 0-2.42 1.11-4.38 1.11-4.38 1.11-.8 2.17-.79 2.17-.79l.08.1c-1.4.38-2.03.98-2.03.98s.17-.1.45-.22a5.93 5.93 0 0 1 1.75-.47l.14-.02a6.42 6.42 0 0 1 3.88.7s-.61-.55-1.93-.94l.11-.13s1.06-.02 2.17.8c0 0 1.11 1.95 1.11 4.37 0 0-.65 1.08-2.36 1.14Zm-3.59-3.5a.8.8 0 0 0-.78.82c0 .46.35.84.78.84a.8.8 0 0 0 .8-.84.8.8 0 0 0-.8-.83Zm2.82 0a.8.8 0 0 0-.79.82c0 .46.36.84.79.84a.8.8 0 0 0 .79-.84.8.8 0 0 0-.8-.83Z"/></svg>
