<svg xmlns="http://www.w3.org/2000/svg" viewBox="0 0 30 30"><circle cx="15" cy="15" r="15" fill="#7C509A"/><path fill="#fff" d="M19.69 7.9a23.24 23.24 0 0 0-8.69 0c-1.26.28-2.85 1.81-3.13 3.01-.5 2.35-.5 4.75 0 7.1A5.15 5.15 0 0 0 11 21c.06 0 .11.06.11.11v3.44c0 .16.22.27.33.1l1.65-1.68 1.54-1.59s.06-.05.11-.05c1.65.05 3.36-.11 5-.38 1.27-.28 2.86-1.8 3.14-3 .5-2.35.5-4.76 0-7.1a5.16 5.16 0 0 0-3.19-2.95Zm.06 10.27c-.28.55-.6.99-1.16 1.26l-.5.16c-.21-.05-.38-.1-.54-.16-1.76-.71-3.41-1.7-4.73-3.11A13.13 13.13 0 0 1 11 13.59c-.22-.5-.44-.93-.6-1.42-.17-.44.11-.88.38-1.2.28-.33.6-.55 1-.71.27-.17.54-.06.76.16.44.55.88 1.1 1.21 1.7.22.38.17.81-.22 1.08-.1.06-.16.11-.27.22-.06.06-.17.11-.22.22a.53.53 0 0 0-.06.5 4.54 4.54 0 0 0 2.53 2.78c.22.1.39.16.66.16.39-.05.55-.49.83-.7.27-.23.6-.23.93-.06.28.16.55.38.88.6.28.22.55.38.83.6.16.1.22.38.1.65Zm-2.31-4.1c-.11 0-.06 0 0 0-.22 0-.28-.1-.33-.26 0-.11 0-.28-.06-.39a1.04 1.04 0 0 0-.38-.6l-.33-.16c-.17-.06-.28-.06-.44-.06-.17-.05-.22-.16-.22-.32 0-.11.16-.22.27-.22.88.05 1.54.54 1.65 1.58v.22c0 .1-.05.22-.16.22Zm-.55-2.4c-.28-.1-.55-.21-.88-.27-.11 0-.28-.05-.39-.05-.16 0-.27-.11-.22-.27 0-.17.11-.28.28-.22a4.9 4.9 0 0 1 1.54.38c.99.5 1.54 1.31 1.7 2.4V14.35c-.05.22-.44.27-.5 0 0-.05-.05-.16-.05-.22 0-.49-.1-.98-.33-1.42-.33-.49-.71-.82-1.15-1.03Zm2.97 3.28c-.17 0-.28-.16-.28-.33 0-.32-.05-.65-.1-.98a4.07 4.07 0 0 0-3.36-3.44c-.28-.05-.55-.05-.77-.1-.17 0-.39 0-.44-.23-.06-.16.1-.32.27-.32h.11c.11 0 2.26.05 0 0a4.66 4.66 0 0 1 4.62 3.87c.06.39.11.77.11 1.2.11.17 0 .33-.16.33Z"/></svg>
