<svg xmlns="http://www.w3.org/2000/svg" viewBox="0 0 40 50"><path fill="currentColor" d="M23.1 49a2.5 2.5 0 0 1-.2-2.8 6.1 6.1 0 0 0-.3-5.9c-.4-.7-1-1.4-1.6-1.9-2.4-1.7-4-4.3-4.7-7.1-5.3 7-3.3 11-.7 14.5a2.3 2.3 0 0 1 0 2.8c-.4.4-.8.7-1.3.9-.5.1-1 .2-1.5 0-3.4-.8-6.7-2.4-8.9-5A14.6 14.6 0 0 1 .3 34S-.1 26.4 9 18.8c0 0 11-9.3 7.2-16.2a2 2 0 0 1 .3-2 1.7 1.7 0 0 1 2-.5l.4.2c4.2 2.6 7.4 6.4 9.3 11 1.8 4.4 1.8 9.5.6 14 1-.8 1.8-2 2.5-3.1V22c.7-1.5 2.6-1 3.4 0 .2.3 7.1 10.4 3.4 18.8a17.2 17.2 0 0 1-5.7 6.4c-2 1.3-4.3 2.2-6.7 2.7a2.6 2.6 0 0 1-2.7-1Zm-5.5-24.3a1.3 1.3 0 0 1 1.7.4l.3.6.1 1.1c0 1.6 0 3.3.7 4.8.6 1.6 1.6 3 2.9 4 1.6 1.2 2.9 2.7 3.6 4.5.7 1.8.8 3.7.3 5.6 1.6-.5 3-1.3 4.3-2.4l.3-.3a10 10 0 0 0 3.7-7.1c.2-3.2-1-6.4-2.6-9.3a7 7 0 0 1-3 2.5c-.9.3-1.7.6-2.5.6-.5 0-1 0-1.4-.3a2.6 2.6 0 0 1-1.3-2.1c0-.4 0-.8.2-1.2 1.3-3 1.7-6.4 1.1-9.7-.6-3.7-2.4-7.2-5-9.9-.6 7-7.6 13.4-9 14.7l-.8.6c-7.6 6.2-7 11.8-7 12-.2 2.2.3 4.5 1.4 6.4 1.1 2 2.8 3.7 4.7 4.8-2.2-5-2.2-11 6.1-19.6l1.2-.7Z"/></svg>
