<svg xmlns="http://www.w3.org/2000/svg" viewBox="0 0 33 20"><path fill="#F9B50B" d="M33 10c0 5.49-4.42 10-9.9 10a10 10 0 0 1-9.9-10c0-5.49 4.42-10 9.85-10A9.97 9.97 0 0 1 33 10Z"/><path fill="#C8191C" d="M19.75 10.05c0-.72-.1-1.43-.2-2.1h-6.1c.05-.36.16-.67.26-1.08h5.43c-.1-.36-.25-.72-.4-1.08H14.1c.16-.35.36-.66.56-1.07h3.5a7 7 0 0 0-.76-1.08h-1.93c.3-.36.61-.67 1.02-1.02A9.58 9.58 0 0 0 9.85 0 10.09 10.09 0 0 0 0 10c0 5.49 4.42 10 9.9 10a9.91 9.91 0 0 0 6.65-2.62c.36-.3.66-.66 1.02-1.07h-2.03c-.26-.31-.51-.67-.72-1.03h3.46c.2-.3.4-.66.56-1.07h-4.62c-.16-.31-.3-.67-.41-1.08h5.43c.3-.92.5-1.95.5-3.08Z"/><path fill="#fff" d="m13.4 12.56.16-.92c-.06 0-.16.05-.26.05-.35 0-.4-.2-.35-.3l.3-1.85h.56l.15-1.03h-.5l.1-.61h-1.07s-.61 3.48-.61 3.9c0 .61.36.92.86.92.3 0 .56-.1.66-.16ZM13.76 10.87c0 1.49 1.01 1.85 1.83 1.85.76 0 1.11-.16 1.11-.16l.2-1.02s-.55.25-1.11.25c-1.17 0-.97-.87-.97-.87h2.14s.15-.66.15-.97c0-.67-.36-1.54-1.52-1.54-1.02-.05-1.83 1.13-1.83 2.46Zm1.83-1.54c.55 0 .45.67.45.72h-1.16c.05-.05.15-.72.7-.72ZM22.24 12.56l.2-1.18s-.5.26-.91.26c-.71 0-1.07-.56-1.07-1.23 0-1.28.6-1.95 1.37-1.95.5 0 .97.3.97.3l.15-1.12s-.61-.26-1.22-.26c-1.22 0-2.39 1.08-2.39 3.08 0 1.33.61 2.2 1.88 2.2.46.06 1.02-.1 1.02-.1ZM7.67 8.36c-.71 0-1.27.2-1.27.2l-.16.93s.46-.2 1.17-.2c.36 0 .66.04.66.35 0 .2-.05.26-.05.26h-.46c-.9 0-1.87.36-1.87 1.59 0 .97.6 1.18 1.01 1.18.71 0 1.07-.46 1.12-.46l-.05.4h.86l.4-2.92c0-1.28-1-1.33-1.36-1.33Zm.2 2.36c0 .15-.1 1.02-.71 1.02-.3 0-.4-.25-.4-.4 0-.26.14-.62.96-.62h.15ZM10.05 12.67c.26 0 1.58.05 1.58-1.39 0-1.33-1.27-1.07-1.27-1.59 0-.25.2-.36.56-.36.15 0 .7.05.7.05l.16-.97s-.36-.1-1.02-.1c-.76 0-1.57.3-1.57 1.38 0 1.23 1.32 1.13 1.32 1.6 0 .3-.36.35-.61.35a3.9 3.9 0 0 1-.96-.15l-.16.97c.1.1.4.2 1.27.2ZM30.97 7.54l-.2 1.43s-.41-.5-1.02-.5c-.96 0-1.78 1.17-1.78 2.56 0 .87.41 1.74 1.32 1.74.61 0 1.02-.41 1.02-.41l-.05.36h1.06l.77-5.08-1.12-.1Zm-.5 2.77c0 .56-.26 1.33-.87 1.33-.36 0-.56-.3-.56-.87 0-.87.36-1.39.86-1.39.36.06.56.31.56.93ZM1.93 12.62l.6-3.8.11 3.8h.71l1.37-3.8-.56 3.8h1.12l.86-5.08H4.42l-1.07 3.13-.05-3.13H1.78L.9 12.62h1.02Z"/><path fill="#fff" d="M18.18 12.62c.3-1.75.35-3.18 1.11-2.93.1-.66.26-.97.36-1.23h-.2c-.46 0-.87.62-.87.62l.1-.57h-1.01l-.66 4.1h1.17ZM24.67 8.36c-.7 0-1.27.2-1.27.2l-.15.93s.46-.2 1.17-.2c.36 0 .66.04.66.35 0 .2-.05.26-.05.26h-.46c-.91 0-1.88.36-1.88 1.59 0 .97.61 1.18 1.02 1.18.71 0 1.07-.46 1.12-.46l-.05.4h.96l.4-2.92c0-1.28-1.11-1.33-1.47-1.33Zm.26 2.36c0 .15-.1 1.02-.71 1.02-.3 0-.4-.25-.4-.4 0-.26.14-.62.96-.62h.15ZM26.96 12.62c.3-1.75.35-3.18 1.12-2.93.1-.66.25-.97.35-1.23h-.2c-.46 0-.87.62-.87.62l.1-.57h-1l-.67 4.1h1.17Z"/></svg>
