<svg xmlns="http://www.w3.org/2000/svg" viewBox="0 0 45 13"><path fill="#148ACA" d="M40.37 0h-8.66c.5 2.85 3.28 5.53 6.3 5.53h6.9c.09-.25.09-.67.09-.92C45 2.1 42.9 0 40.37 0Z"/><path fill="#72A44E" d="M32.47 6.04V13h4.2V9.3h3.7a4.7 4.7 0 0 0 4.38-3.26H32.47ZM17.66 0v12.91h3.7s.93 0 1.43-.92c2.53-4.95 3.28-6.46 3.28-6.46h.5v7.38h4.21V0h-3.7s-.92.08-1.43.92c-2.1 4.28-3.28 6.46-3.28 6.46h-.5V0h-4.2ZM0 13V.08h4.2s1.18 0 1.86 1.85C7.74 6.79 7.9 7.46 7.9 7.46s.33-1.17 1.85-5.53C10.43.08 11.6.08 11.6.08h4.2V13h-4.2V6.04h-.5L8.74 13H6.9L4.54 6.04h-.5V13H0Z"/></svg>
