<svg xmlns="http://www.w3.org/2000/svg" viewBox="0 0 239 120"><path d="M206.7 34.3v29.3h-10.5V43H186v20.6h-10.5V34.3h31zm-52.6 30.3c9.4 0 16.4-5.7 16.4-14.4 0-8.5-5.2-14-13.8-14-4 0-7.2 1.5-9.7 3.9.6-5 4.8-8.6 9.5-8.6h9l4.6-8.8-14.8.3c-10.7.1-18 9.9-18 21.7 0 13.9 7.1 20 16.8 20zm0-20.6c3.5 0 6 2.3 6 6.2 0 3.5-2.2 6.4-6 6.4-3.5 0-6-2.7-6-6.4 0-3.9 2.5-6.2 6-6.2z"/><path d="M128.8 53.8s-2.5 1.4-6.2 1.7c-4.2 0-8-2.6-8-7.4 0-4.6 3.4-7.3 8-7.3 2.8 0 6.5 2 6.5 2l4.1-7.5c-2.6-2-6-3-10-3-10.1 0-18 6.5-18 15.8s7.4 15.8 18 15.6c3-.1 7-1.2 9.5-2.8z" style="fill:#000"/><path fill="#5B57A2" d="m0 26.1 14.5 26v15.8L0 94V26z"/><path fill="#D90751" d="m55.8 42.6 13.6-8.3h27.9L55.8 59.7v-17z"/><path fill="#FAB718" d="m55.7 26 .1 34.4-14.6-9V0l14.5 26z"/><path fill="#ED6F26" d="M97.3 34.3H69.4L55.7 26 41.2 0l56 34.3z"/><path fill="#63B22F" d="M55.8 94V77.3l-14.6-8.8V120l14.6-26z"/><path fill="#1487C9" d="M69.4 85.7 14.5 52.1 0 26l97.2 59.6H69.4z"/><path fill="#017F36" d="m41.2 120 14.6-26 13.6-8.3h27.8l-56 34.3z"/><path fill="#984995" d="m0 93.9 41.4-25.4-14-8.5-12.9 8L0 93.8z"/><path d="M114.6 83.3a3 3 0 0 1-1.2 1 4.3 4.3 0 0 1-1.7.3 4.6 4.6 0 0 1-1.6-.3 3.6 3.6 0 0 1-1.3-.8 3.5 3.5 0 0 1-.8-1.2 4.2 4.2 0 0 1-.3-1.6 4 4 0 0 1 1.1-2.7c.3-.4.7-.6 1.2-.9l1.5-.3c.6 0 1.2.1 1.7.3.5.1 1 .4 1.3.7l-.6 1a2.9 2.9 0 0 0-1-.5 3.6 3.6 0 0 0-1.2-.2c-.3 0-.6 0-1 .2a2.6 2.6 0 0 0-.8.5 2.4 2.4 0 0 0-.5.8c-.2.4-.3.7-.3 1.1a2.6 2.6 0 0 0 .8 2l.9.5 1 .1c.5 0 1 0 1.3-.2a3 3 0 0 0 .9-.7zm1.8 1.1V77h1.3v5.5L122 77h1.3v7.4H122v-5.5l-4.3 5.5h-1.3zm15.7-1a3 3 0 0 1-1.2.9 4.3 4.3 0 0 1-1.6.3 4.6 4.6 0 0 1-1.7-.3 3.6 3.6 0 0 1-1.2-.8 3.5 3.5 0 0 1-.9-1.2 4.2 4.2 0 0 1-.2-1.6 4 4 0 0 1 1-2.7l1.2-.9a3.6 3.6 0 0 1 1.5-.3c.6 0 1.2.1 1.7.3.5.1 1 .4 1.3.7l-.6 1a2.9 2.9 0 0 0-1-.5 3.6 3.6 0 0 0-1.2-.2 2.6 2.6 0 0 0-1.8.7 2.5 2.5 0 0 0-.5.8c-.2.4-.2.7-.2 1.1a2.6 2.6 0 0 0 .8 2l.8.5 1 .1c.5 0 1 0 1.3-.2a3 3 0 0 0 1-.7zm.7-6.4h6.9v1.3h-2.8v6.1h-1.3v-6h-2.8V77zm13.1 7.3c.5-.1.9-.4 1.3-.7l-.4-1-1 .5c-.4.2-.8.2-1.3.2-.8 0-1.4-.2-1.9-.5a3 3 0 0 1-.8-1.7h5.8a4 4 0 0 0-.2-2.3 3.3 3.3 0 0 0-.7-1 3.3 3.3 0 0 0-1.1-.7 3.7 3.7 0 0 0-1.4-.3c-.6 0-1.2.1-1.6.3a3.6 3.6 0 0 0-1.2.9 3.5 3.5 0 0 0-.8 1.2 4.3 4.3 0 0 0-.3 1.5c0 .6.1 1.1.3 1.6a3.5 3.5 0 0 0 .8 1.2c.4.4.8.6 1.3.8a4.8 4.8 0 0 0 1.7.3 5 5 0 0 0 1.5-.3zm-3.4-5.7c.4-.3 1-.5 1.6-.5.7 0 1.2.1 1.6.5.4.3.6.8.6 1.4h-4.5a2.3 2.3 0 0 1 .7-1.4zm7-1.6h1.2l2.9 3.7 2.7-3.7h1.2v7.4h-1.3V79l-2.6 3.4-2.8-3.4v5.4h-1.3zm11.6 0a4.2 4.2 0 0 0-1.1.5l.3 1 1-.3 1-.2c.5 0 .7 0 1 .2l.5.5.2.7v1a2.3 2.3 0 0 0-.8-.4 5.2 5.2 0 0 0-1-.1l-1.1.1-1 .5a2.1 2.1 0 0 0-.5.7 2.3 2.3 0 0 0-.2 1c0 .8.2 1.3.6 1.7.4.4 1 .6 1.7.6a3 3 0 0 0 1.5-.3l.9-.7v1h1.2v-4.6a4 4 0 0 0-.6-2.3c-.4-.5-1.2-.8-2.2-.8l-1.4.2zm2.2 6a2 2 0 0 1-1.2.3c-.4 0-.7 0-1-.3-.2-.2-.3-.5-.3-.8l.1-.6.4-.4a1.6 1.6 0 0 1 .5-.2h.6c.6 0 1.2.1 1.7.4v1a3.8 3.8 0 0 1-.8.6zm13.8-8.6.7-.6-.7-1-.6.4a4 4 0 0 1-.8.2h-.3l-.7.2a5.2 5.2 0 0 0-1.1.4 4 4 0 0 0-1.5 1 5 5 0 0 0-.8 1.5 7.8 7.8 0 0 0-.4 1.7l-.1 1.8c0 .7 0 1.3.3 1.9.1.6.4 1 .7 1.4l1.3 1c.5.2 1 .3 1.6.3.6 0 1.1-.1 1.6-.3a3.8 3.8 0 0 0 1.2-.9 3.7 3.7 0 0 0 1-2.6c0-.6 0-1.1-.2-1.5a3.3 3.3 0 0 0-.6-1.2 3 3 0 0 0-1.1-.8 3.8 3.8 0 0 0-1.5-.2l-1 .1a3.6 3.6 0 0 0-.8.4 3.2 3.2 0 0 0-.7.5l-.5.7c0-.3 0-.7.2-1 0-.4.1-.7.3-1l.5-1a2.5 2.5 0 0 1 1-.6 4.6 4.6 0 0 1 1-.3h.3a31.3 31.3 0 0 0 1.7-.5zm-4.7 7.1a4.1 4.1 0 0 1-.2-1.3 2 2 0 0 1 .3-.7l.6-.6a2.8 2.8 0 0 1 1.7-.6c.8 0 1.4.3 1.8.7.4.5.6 1.1.6 1.8 0 .4 0 .7-.2 1a2.4 2.4 0 0 1-1.3 1.3 2.4 2.4 0 0 1-2 0 2.3 2.3 0 0 1-.8-.6 3.1 3.1 0 0 1-.5-1zm16.4-4.5h-1.3v7.4h1.3zm-8.3 0h1.3v2.2h1.3c.5 0 1 0 1.4.2l1 .6.4.8.1 1-.1 1-.5.8-1 .6-1.5.2h-2.4V77zm1.3 3.5v2.7h1c.7 0 1.1-.1 1.4-.4.3-.2.4-.5.4-1 0-.4-.1-.8-.4-1-.3-.2-.7-.4-1.4-.4h-1zm15.8 2.8a3 3 0 0 1-1.3 1 4.3 4.3 0 0 1-1.6.3 4.6 4.6 0 0 1-1.6-.3 3.6 3.6 0 0 1-1.3-.8 3.6 3.6 0 0 1-.8-1.2 4.2 4.2 0 0 1-.3-1.6 4 4 0 0 1 1-2.7c.4-.4.8-.6 1.3-.9a3.6 3.6 0 0 1 1.5-.3c.6 0 1.1.1 1.6.3.5.1 1 .4 1.3.7l-.6 1a2.9 2.9 0 0 0-1-.5 3.6 3.6 0 0 0-1.1-.2c-.4 0-.7 0-1 .2a2.6 2.6 0 0 0-.8.5 2.5 2.5 0 0 0-.6.8l-.2 1.1a2.6 2.6 0 0 0 .8 2l.9.5 1 .1c.5 0 .9 0 1.2-.2a3 3 0 0 0 1-.7zm.7-6.3h6.8v1.3h-2.8v6.1H201v-6h-2.7V77zm9.6 0h-1.4v10.7h1.4v-3.6c.2.1.6.3 1 .3l1 .2c.7 0 1.2-.1 1.7-.3a3.8 3.8 0 0 0 1.2-.9l.8-1.2a4.6 4.6 0 0 0 0-3 3.5 3.5 0 0 0-.7-1.3 3 3 0 0 0-1-.8 3.5 3.5 0 0 0-1.5-.3l-1.5.3c-.4.2-.8.5-1 .8zm.9 1.4 1.2-.3c.4 0 .8 0 1 .2.4 0 .6.3.8.5l.5.8.2 1-.2 1.1a2.4 2.4 0 0 1-.5.9 2.4 2.4 0 0 1-.8.5 2.7 2.7 0 0 1-1.1.2 4 4 0 0 1-1 0 3.3 3.3 0 0 1-1-.5V79a3 3 0 0 1 .9-.7zM224 77h-1.4v7.4h1.4zm-8.3 0h1.3v2.2h1.2c.6 0 1 0 1.5.2l.9.6.5.8a3.3 3.3 0 0 1 0 2l-.6.8-1 .6-1.4.2h-2.4V77zm1.3 3.5v2.7h1c.7 0 1.1-.1 1.4-.4.3-.2.4-.5.4-1 0-.4-.1-.8-.4-1-.3-.2-.8-.4-1.4-.4h-1zm13.5.1 2.8 3.8h-1.6l-2.2-3-2.3 3h-1.5l2.8-3.8L226 77h1.6l2 2.8 2-2.8h1.6zm-116.9 13h-4v6.1h-1.4v-7.4h6.8v7.4h-1.4zm9 0h-2.7l-.1 1.3c0 1-.2 1.9-.4 2.5l-.6 1.5c-.3.4-.6.6-1 .7a3 3 0 0 1-1 .2l-.1-1.3h.5c.2-.1.4-.3.5-.6l.5-1.2c.2-.5.2-1.2.3-2l.1-2.4h5.2v7.4h-1.3v-6zm4.8-1.3-1.1.5.3 1 1-.3 1.1-.2.9.2.5.5.2.7.1 1a2.3 2.3 0 0 0-1-.4 5.2 5.2 0 0 0-.9-.1 4 4 0 0 0-1 .2c-.4 0-.7.2-1 .4a2.1 2.1 0 0 0-.6.8 2.3 2.3 0 0 0-.2 1c0 .7.2 1.2.6 1.6.5.4 1 .6 1.7.6a3 3 0 0 0 1.5-.3c.4-.2.7-.4.9-.7v1h1.2v-4.6a4 4 0 0 0-.6-2.3c-.4-.5-1.2-.7-2.2-.7a5.1 5.1 0 0 0-1.4.1zm2.3 6a2 2 0 0 1-1.2.4c-.5 0-.8-.2-1-.4a1 1 0 0 1-.4-.8c0-.2 0-.4.2-.5 0-.2.2-.3.3-.4l.5-.3a2.3 2.3 0 0 1 .6 0c.7 0 1.2.1 1.7.5v.9a3.8 3.8 0 0 1-.7.6zm3.3-6h6.8v1.3H137v6.1h-1.3v-6H133v-1.4zm13 7.4c.5-.2 1-.4 1.3-.8l-.4-1-1 .5c-.4.2-.8.3-1.3.3-.7 0-1.4-.2-1.8-.6-.5-.4-.8-1-.8-1.7h5.7a4 4 0 0 0-.2-2.2 3.3 3.3 0 0 0-.7-1.1 3.3 3.3 0 0 0-1.1-.7 3.7 3.7 0 0 0-1.4-.2c-.6 0-1.1 0-1.6.3a3.6 3.6 0 0 0-1.2.8 3.5 3.5 0 0 0-.8 1.2 4.3 4.3 0 0 0-.2 1.5c0 .6 0 1.1.2 1.6a3.5 3.5 0 0 0 2.1 2 4.8 4.8 0 0 0 1.7.3c.5 0 1 0 1.5-.2zm-3.4-5.8c.4-.3 1-.5 1.7-.5.6 0 1.1.2 1.5.5.4.4.6.8.6 1.5H142a2.3 2.3 0 0 1 .7-1.5zm5.9-1.6h1.6l2.6 3.6-2.7 3.8h-1.7l3-3.8-2.8-3.6zm4.5 0h1.4v7.4H153zm6.1 7.4-3-3.8 2.8-3.6h-1.6l-2.6 3.6 2.8 3.8zm6 0c.6-.2 1-.4 1.4-.8l-.4-1-1 .5c-.4.2-.8.3-1.3.3-.7 0-1.3-.2-1.8-.6-.5-.4-.8-1-.8-1.7h5.7a4 4 0 0 0-.2-2.2 3.3 3.3 0 0 0-.7-1.1 3.3 3.3 0 0 0-1.1-.7 3.7 3.7 0 0 0-1.4-.2c-.6 0-1.1 0-1.6.3a3.6 3.6 0 0 0-1.2.8 3.5 3.5 0 0 0-.8 1.2 4.3 4.3 0 0 0-.2 1.5c0 .6 0 1.1.3 1.6a3.5 3.5 0 0 0 2 2 4.8 4.8 0 0 0 1.7.3 5 5 0 0 0 1.5-.2zm-3.3-5.8c.4-.3 1-.5 1.7-.5.6 0 1.1.2 1.5.5.4.4.6.8.6 1.5h-4.5a2.3 2.3 0 0 1 .7-1.5zm10.6-4c-.8 0-1.2-.5-1.3-1.4H170l.1 1 .5.7.8.5 1.1.1a2.6 2.6 0 0 0 1.8-.6l.5-.7.2-1h-1.3c0 .9-.4 1.3-1.2 1.3zm-3.6 2.4v7.4h1.3l4.4-5.5v5.5h1.3v-7.4h-1.3l-4.4 5.5v-5.5z"/></svg>
