<svg xmlns="http://www.w3.org/2000/svg" viewBox="0 0 47 14"><path fill="#3362AB" d="M43.84.2h-2.96C40 .2 39.3.47 38.9 1.33L33.26 13.8h3.98s.69-1.67.83-2.07h4.88c.13.47.48 2 .48 2H47L43.84.2Zm-4.67 8.73c.34-.8 1.5-3.8 1.5-3.8 0 .07.35-.8.49-1.26l.27 1.2s.76 3.26.9 3.93h-3.16v-.07ZM33.53 9.33c0 2.8-2.6 4.67-6.66 4.67-1.72 0-3.37-.33-4.26-.73l.55-3.07.48.2c1.23.53 2.06.73 3.57.73 1.1 0 2.27-.4 2.27-1.33 0-.6-.48-1-2-1.67-1.44-.66-3.36-1.73-3.36-3.66C24.12 1.8 26.8 0 30.58 0A9 9 0 0 1 34 .6l-.55 2.93-.27-.26a7.58 7.58 0 0 0-2.89-.54c-1.44.07-2.13.67-2.13 1.2 0 .6.83 1.07 2.13 1.67 2.2 1 3.23 2.13 3.23 3.73Z"/><path fill="#F9B50B" d="M0 .33.07.07h5.9c.83 0 1.45.26 1.66 1.13l1.3 6C7.63 4 4.6 1.4 0 .33Z"/><path fill="#3362AB" d="m17.25.2-5.98 13.53H7.2L3.78 2.4C6.25 3.93 8.3 6.33 9.07 8l.41 1.4L13.2.13h4.06V.2ZM18.83.13h3.78l-2.4 13.6h-3.79l2.4-13.6Z"/></svg>
