<svg xmlns="http://www.w3.org/2000/svg" fill="none" viewBox="0 0 40 40"><path fill="currentColor" d="M33.94 11.45c-.28-.5-.68-.92-1.16-1.2a3.15 3.15 0 0 0-1.58-.46H10.58l-.94-3.76c-.09-.36-.3-.68-.6-.9-.29-.23-.64-.34-1-.33H4.8c-.43 0-.84.18-1.14.49a1.69 1.69 0 0 0 0 2.35c.3.3.71.48 1.14.48h2l4.45 17.05c.09.36.3.68.6.9.29.23.64.34 1 .33h14.5c.3 0 .6-.09.85-.25s.46-.4.6-.66l5.28-10.9a3.41 3.41 0 0 0-.15-3.14Zm-7.57 11.63H14.09l-2.62-9.97H31.2l-4.83 9.97ZM12.5 35a2.5 2.5 0 1 0 0-5 2.5 2.5 0 0 0 0 5ZM28.37 35a2.5 2.5 0 1 0 0-5 2.5 2.5 0 0 0 0 5Z"/></svg>
