<svg xmlns="http://www.w3.org/2000/svg" viewBox="0 0 40 40"><path fill="hsl(var(--theme))" d="M6 24.5 2 24V9.5l8 1.5-1 5.5-3 8Z"/><path fill="hsl(var(--theme))" d="m35.5 26 5.2-1-1.5-14.4-8.7 1.9 2.5 5.8 2.5 7.7Z"/><path fill="hsl(var(--primary))" d="M32.6 25.6c-.8-1.6-3.6-3.9-6.3-6-1.5-1.3-3-2.4-3.9-3.4a.8.8 0 0 0-.8-.1l-1.2.4c-.4.2-.6.3-1.1.3a.8.8 0 0 0-.7.4c-1.1 1.8-2.4 1.6-3.2 1.3-.2 0-.3-.2-.3-.3-.2-.7.7-2.4 1.8-3.5 2.7-2.7 4.1-3.4 7-2.1a97.4 97.4 0 0 0 7.5 2.6.8.8 0 0 0-.1-1.5l-6.6-2.6c-3.8-1.7-6-.6-9 2.4-1 1.1-2.6 3.4-2.2 5.1a2 2 0 0 0 1.4 1.5c1.9.6 3.6 0 4.9-1.7.5 0 .8-.2 1.3-.3l.5-.3 3.6 3c2.5 2 5.3 4.3 5.9 5.6.3.6 0 1-.3 1.2-.3.3-.7.4-1 .2a.8.8 0 0 0-1.3.8c0 .5-.4.8-.6 1-.6.2-1.1.2-1.3 0a.8.8 0 0 0-1.4.5c0 .5-.5 1-1 1.3-.3 0-.6.1-1-.2a.8.8 0 0 0-1 0l-.3.3c0 .1-.1.3-.9.3-.6 0-1.6-.3-2-.7a133.8 133.8 0 0 1-9.4-7.6L8.2 22a.8.8 0 0 0-1 1.3l1.2 1.3 2 2a133 133 0 0 0 7.6 6c.7.3 2 .9 3 .9.8 0 1.5-.2 1.9-.6.6.3 1.2.3 1.9 0s1.4-.9 1.7-1.6c.7.2 1.4 0 2.1-.3.7-.3 1.2-.8 1.4-1.4.7 0 1.4-.2 2-.7.9-.8 1.1-2.1.6-3.3Z"/><path fill="hsl(var(--primary))" d="M17.7 11.8h-7.5a.8.8 0 0 0 0 1.7h7.5a.8.8 0 0 0 0-1.7Zm17.3 12a.8.8 0 0 0-1.1-.2l-2.5 1.7a.8.8 0 0 0 1 1.4l2.4-1.7c.4-.2.5-.7.2-1.1Zm-5.1 4c-.6-.4-3.3-3.2-5-4.9a.8.8 0 1 0-1.2 1.2 119.7 119.7 0 0 0 5.6 5.2c.3 0 .5 0 .7-.3.3-.3.2-.9-.1-1.2Zm-3.4 1.7c-1-.8-3.5-3.4-4-4a.8.8 0 0 0-1.3 1c0 .1 3 3.3 4.3 4.3a.8.8 0 0 0 1.2-.1c.2-.4.2-.9-.2-1.2Zm-3.3 1.7c-1.2-1-3.6-3.6-4-4.1a.8.8 0 1 0-1.3 1.1 70.2 70.2 0 0 0 4.8 4.5.8.8 0 0 0 .5-1.5Z"/><path fill="hsl(var(--primary))" d="M10.7 10.4C9.3 9 3.6 8.6 2 8.5a.8.8 0 0 0-.9.8v15c0 .5.4.9.8.9h5c.4 0 .7-.3.8-.6.1-.4 3-9.2 3.4-13.5 0-.3 0-.5-.3-.7ZM6.2 23.5H2.7V10.2c2.6.2 5.5.7 6.6 1.2a87.4 87.4 0 0 1-3 12.1Zm34-13.3a26 26 0 0 0-10.4 1.7.8.8 0 0 0-.3 1.2 110.8 110.8 0 0 1 5.2 13.6l.5.1h5c.4 0 .8-.3.8-.8V11a.8.8 0 0 0-.8-.8Zm-.9 15h-3.5c-.8-2.6-3.1-9.3-4.4-12 1.2-.5 4-1.3 8-1.4v13.4Z"/></svg>
