<svg xmlns="http://www.w3.org/2000/svg" viewBox="0 0 40 40"><path fill="hsl(var(--theme))" d="M22.5 26 14 17.5l1.5-2.5L20 9l4-3c.4-.4 4.2-2.2 6-3l1 .5 3 3 3 3.5-1 2.5-2 3.5-2.5 3-4 4-5 3Z"/><circle cx="28" cy="12" r="3" fill="hsl(var(--light))"/><path fill="hsl(var(--primary))" d="M21 19a.8.8 0 1 0-1.1 1.1.8.8 0 0 0 1-1ZM31 9a3.9 3.9 0 1 0-5.6 5.6A3.9 3.9 0 0 0 31 9Zm-1.2 4.5a2.3 2.3 0 1 1-3.3-3.3 2.3 2.3 0 0 1 3.3 3.3Z"/><path fill="hsl(var(--primary))" d="M39.8.2a.8.8 0 0 0-.6-.2c-.2 0-4.4.2-9.4 2a26.2 26.2 0 0 0-11.6 7.8c-2.5-1.5-4.6-1-5.9-.3-3 1.5-4.8 5.9-4.8 9a.8.8 0 0 0 1.3.5 5 5 0 0 1 4.2-1.4l.2.3c-.5 1.3-1 2.6-1.2 3.8-.2.4-.1 1 0 1.3-.7.4-1.4.9-2 1.5-2 2-2.5 7-2.5 7.2a.8.8 0 0 0 .8.8c.3 0 5.2-.4 7.2-2.4L17 28c.4.1.9.2 1.3 0l3.8-1.2.3.2a5 5 0 0 1-1.4 4.2.8.8 0 0 0 .5 1.3c3.1 0 7.5-1.8 9-4.8.7-1.3 1.2-3.4-.3-5.9l1.8-1.7c2.6-2.6 4.6-5.9 6-10 1.8-5 2-9.1 2-9.3 0-.2 0-.4-.2-.6ZM9.2 16.8c.5-2.4 2-5 3.9-6 1.2-.7 2.6-.6 4.1.2a31.6 31.6 0 0 0-3.3 5.4s-.1-.2-.4-.3c0 0-2.2-.4-4.3.7ZM14.4 29c-1.1 1-3.6 1.6-5.2 1.8.2-1.6.8-4 1.8-5.2.6-.6 1.3-1 2-1.3l2.7 2.7c-.3.7-.7 1.4-1.3 2Zm3.5-2.5c-.2 0-.5 0-.7-.2l-1.5-1.5-2-2a.7.7 0 0 1-.2-.7c.2-1 .5-2 1-3l6.4 6.5-3 1Zm11.3.4c-1 2-3.6 3.4-6 3.9.8-1.5 1-3.3.7-4.3l-.3-.4c2-1 3.7-2 5.4-3.3.8 1.5.9 2.9.2 4.1Zm1.7-7.9a28.4 28.4 0 0 1-8.4 5.9L15 17.5A30 30 0 0 1 21 9.1c2.3-2.3 5.3-4.2 8.9-5.5l6.5 6.5a24.4 24.4 0 0 1-5.5 9Zm6-10.5L31.6 3c3-.9 5.6-1.2 6.9-1.4-.2 1.3-.5 4-1.4 6.9Z"/><path fill="hsl(var(--primary))" d="M18.8 32.3a.8.8 0 0 0-1.1 0l-2.2 2.2a.8.8 0 0 0 1 1l2.3-2.1c.3-.3.3-.8 0-1.1Zm-11-11a.8.8 0 0 0-1.2 0l-2.2 2.1a.8.8 0 1 0 1.1 1.1l2.2-2.2c.3-.3.3-.8 0-1Zm5.5 12a.8.8 0 0 0-1.2 0L7 38.8a.8.8 0 1 0 1 1l5.4-5.2c.3-.3.3-.8 0-1.1Zm-6.3 0a.8.8 0 0 0-1.1 0L.6 38.8a.8.8 0 1 0 1.1 1L7 34.6c.3-.3.3-.8 0-1.1Zm-.4-6.6a.8.8 0 0 0-1 0L.1 32a.8.8 0 0 0 1.1 1.1l5.3-5.3c.3-.3.3-.7 0-1Zm17.7-11a.8.8 0 0 0-1.1 0l-1.1 1.1a.8.8 0 0 0 1.1 1.1l1.1-1.1c.3-.3.3-.8 0-1.1Z"/></svg>
