<svg xmlns="http://www.w3.org/2000/svg" viewBox="0 0 40 40"><path fill="hsl(var(--theme))" d="M2.01 12.3 1 19l2.53-2.06c2.03.69 6.18 1.96 6.59 1.54.4-.4 3.55-1.2 5.07-1.54L20.25 19l3.04-2.06L30.4 19l3.04-1.03H39v-2.06l-2.53-6.18L31.4 5.6l-6.08-2.06L20.25 2l-6.08 1.55-8.61 4.12-3.55 4.63Z"/><path fill="hsl(var(--primary))" d="M30 20.21a.71.71 0 0 1-.52-.22A6.7 6.7 0 0 0 25 18.07 6.71 6.71 0 0 0 20.52 20a.72.72 0 0 1-1.04 0A6.7 6.7 0 0 0 15 18.07 6.71 6.71 0 0 0 10.52 20a.71.71 0 0 1-1 .04C9.5 20 7.32 18.07 5 18.07c-1.38 0-2.72.43-3.82 1.26A.71.71 0 0 1 0 18.79C0 2.57 19.77 1.65 19.97 1.64 20.23 1.65 40 2.57 40 18.8a.71.71 0 0 1-1.18.54A6.32 6.32 0 0 0 35 18.07c-2.34 0-4.5 1.94-4.52 1.96a.71.71 0 0 1-.48.18Zm-5-3.57c1.85.04 3.63.71 5.03 1.92A8.8 8.8 0 0 1 35 16.64c1.22 0 2.43.28 3.52.83C37.5 3.9 20.71 3.1 19.97 3.07c-.68.03-17.47.83-18.5 14.4 1.1-.55 2.3-.83 3.53-.83a8.8 8.8 0 0 1 4.97 1.92A7.96 7.96 0 0 1 15 16.64c1.83.04 3.6.7 5 1.9a7.96 7.96 0 0 1 5-1.9Z"/><path fill="hsl(var(--primary))" d="M20 3.07a.71.71 0 0 1-.71-.71V.2a.71.71 0 0 1 1.42 0v2.15a.71.71 0 0 1-.71.71Z"/><path fill="hsl(var(--primary))" d="M30 19.5a.71.71 0 0 1-.71-.71c0-10.17-9.55-15.76-9.65-15.81a.71.71 0 0 1 .71-1.24c.43.24 10.36 6.05 10.36 17.05a.71.71 0 0 1-.71.71Z"/><path fill="hsl(var(--primary))" d="M10 19.5a.71.71 0 0 1-.71-.71c0-11 9.93-16.81 10.35-17.05a.71.71 0 0 1 .71 1.24c-.1.05-9.64 5.64-9.64 15.8a.71.71 0 0 1-.71.72Z"/><path fill="hsl(var(--primary))" d="M20 19.5a.71.71 0 0 1-.71-.71V2.36a.71.71 0 0 1 1.42 0v16.43a.71.71 0 0 1-.71.71Zm5.71 8.57c-3.9 0-6.42-1.12-6.42-2.86 0-1.73 2.52-2.85 6.42-2.85s6.43 1.12 6.43 2.85c0 1.74-2.52 2.86-6.43 2.86Zm0-4.28c-3.49 0-5 .94-5 1.42 0 .49 1.51 1.43 5 1.43 3.5 0 5-.94 5-1.43 0-.48-1.5-1.42-5-1.42Z"/><path fill="hsl(var(--primary))" d="M25.71 30.93c-3.9 0-6.42-1.12-6.42-2.86v-2.86h1.42v2.86c0 .48 1.51 1.43 5 1.43 3.5 0 5-.95 5-1.43v-2.86h1.43v2.86c0 1.74-2.52 2.86-6.43 2.86Z"/><path fill="hsl(var(--primary))" d="M25.71 33.79c-3.9 0-6.42-1.13-6.42-2.86v-2.86h1.42v2.86c0 .48 1.51 1.43 5 1.43 3.5 0 5-.95 5-1.43v-2.86h1.43v2.86c0 1.73-2.52 2.86-6.43 2.86Z"/><path fill="hsl(var(--primary))" d="M25.71 36.64c-3.9 0-6.42-1.12-6.42-2.85v-2.86h1.42v2.86c0 .48 1.51 1.42 5 1.42 3.5 0 5-.94 5-1.42v-2.86h1.43v2.86c0 1.73-2.52 2.85-6.43 2.85Z"/><path fill="hsl(var(--primary))" d="M25.71 39.5c-3.9 0-6.42-1.12-6.42-2.86V33.8h1.42v2.85c0 .49 1.51 1.43 5 1.43 3.5 0 5-.94 5-1.43V33.8h1.43v2.85c0 1.74-2.52 2.86-6.43 2.86ZM14.3 33.79c-3.9 0-6.43-1.13-6.43-2.86 0-1.74 2.52-2.86 6.43-2.86 3.9 0 6.42 1.12 6.42 2.86 0 1.73-2.52 2.86-6.42 2.86Zm0-4.29c-3.5 0-5 .95-5 1.43s1.5 1.43 5 1.43c3.49 0 5-.95 5-1.43s-1.51-1.43-5-1.43Z"/><path fill="hsl(var(--primary))" d="M14.29 36.64c-3.9 0-6.43-1.12-6.43-2.85v-2.86h1.43v2.86c0 .48 1.5 1.42 5 1.42 3.49 0 5-.94 5-1.42v-2.86h1.42v2.86c0 1.73-2.52 2.85-6.42 2.85Z"/><path fill="hsl(var(--primary))" d="M14.29 39.5c-3.9 0-6.43-1.12-6.43-2.86V33.8h1.43v2.85c0 .49 1.5 1.43 5 1.43 3.49 0 5-.94 5-1.43V33.8h1.42v2.85c0 1.74-2.52 2.86-6.42 2.86Z"/></svg>
