<svg xmlns="http://www.w3.org/2000/svg" viewBox="0 0 20 20"><path fill="currentColor" fill-rule="evenodd" d="M16 18H4a2 2 0 0 1-2-2V4c0-1.1.9-2 2-2h12a2 2 0 0 1 2 2v12a2 2 0 0 1-2 2ZM4 19.33A3.33 3.33 0 0 1 .67 16V4A3.33 3.33 0 0 1 4 .67h12A3.33 3.33 0 0 1 19.33 4v12A3.33 3.33 0 0 1 16 19.33H4Z" clip-rule="evenodd"/><path fill="currentColor" d="M6.7 4.21a.7.7 0 0 0-1 0L3.54 6.4a.73.73 0 0 0-.16.8.73.73 0 0 0 .39.4.7.7 0 0 0 .78-.17l.92-.94v8.8c0 .19.08.37.21.5a.7.7 0 0 0 1.01 0 .67.67 0 0 0 .21-.5v-8.8l.93.94a.7.7 0 0 0 1 0 .73.73 0 0 0 0-1.03L6.7 4.21Zm3.88 6.7h3.9a.7.7 0 0 0 .5-.21.73.73 0 0 0 0-1.03.7.7 0 0 0-.5-.22h-3.9a.7.7 0 0 0-.5.22.73.73 0 0 0 0 1.03.7.7 0 0 0 .5.2Zm6.04 2.24h-6.04a.7.7 0 0 0-.5.21.73.73 0 0 0 0 1.03.7.7 0 0 0 .5.22h6.04a.7.7 0 0 0 .5-.22.73.73 0 0 0 0-1.03.7.7 0 0 0-.5-.2Zm-6.04-5.94H13a.7.7 0 0 0 .5-.21.73.73 0 0 0 0-1.03.7.7 0 0 0-.5-.21h-2.42a.7.7 0 0 0-.5.21.73.73 0 0 0 0 1.03.7.7 0 0 0 .5.21Z"/></svg>
