<svg xmlns="http://www.w3.org/2000/svg" viewBox="0 0 20 20"><path fill="currentColor" fill-rule="evenodd" d="M16 2H4a2 2 0 0 0-2 2v12c0 1.1.9 2 2 2h12a2 2 0 0 0 2-2V4a2 2 0 0 0-2-2ZM4 .67A3.33 3.33 0 0 0 .67 4v12A3.33 3.33 0 0 0 4 19.33h12A3.33 3.33 0 0 0 19.33 16V4A3.33 3.33 0 0 0 16 .67H4Z" clip-rule="evenodd"/><path fill="currentColor" d="M7.24 9.1h5.9a.7.7 0 0 1 .5.2.73.73 0 0 1 0 1.03.7.7 0 0 1-.5.22h-5.9a.7.7 0 0 1-.5-.22.73.73 0 0 1 0-1.03.7.7 0 0 1 .5-.2Zm8.05-2.25H4.58a.7.7 0 0 1-.5-.21.73.73 0 0 1 0-1.03.7.7 0 0 1 .5-.22h10.7a.7.7 0 0 1 .51.22.73.73 0 0 1 0 1.03.7.7 0 0 1-.5.2Zm-6.05 5.94H11a.7.7 0 0 1 .5.21.73.73 0 0 1 0 1.03.7.7 0 0 1-.5.21H9.24a.7.7 0 0 1-.5-.21.73.73 0 0 1 0-1.03.7.7 0 0 1 .5-.21Z"/></svg>
