<svg xmlns="http://www.w3.org/2000/svg" viewBox="0 0 20 20"><path fill="currentColor" fill-rule="evenodd" d="M16 2H4a2 2 0 0 0-2 2v12c0 1.1.9 2 2 2h12a2 2 0 0 0 2-2V4a2 2 0 0 0-2-2ZM4 .67A3.33 3.33 0 0 0 .67 4v12A3.33 3.33 0 0 0 4 19.33h12A3.33 3.33 0 0 0 19.33 16V4A3.33 3.33 0 0 0 16 .67H4Z" clip-rule="evenodd"/><path fill="currentColor" d="M6.7 15.79a.7.7 0 0 1-1 0L3.54 13.6a.73.73 0 0 1-.16-.8.73.73 0 0 1 .39-.4.7.7 0 0 1 .78.17l.92.94v-8.8c0-.19.08-.37.21-.5a.7.7 0 0 1 1.01 0c.14.13.21.31.21.5v8.8l.93-.94a.7.7 0 0 1 1 0 .73.73 0 0 1 0 1.03L6.7 15.79Zm3.88-6.7h3.9a.7.7 0 0 1 .5.21.73.73 0 0 1 0 1.03.7.7 0 0 1-.5.22h-3.9a.7.7 0 0 1-.5-.22.73.73 0 0 1 0-1.03.7.7 0 0 1 .5-.2Zm6.04-2.24h-6.04a.7.7 0 0 1-.5-.21.73.73 0 0 1 0-1.03.7.7 0 0 1 .5-.22h6.04a.7.7 0 0 1 .5.22.73.73 0 0 1 0 1.03.7.7 0 0 1-.5.2Zm-6.04 5.94H13a.7.7 0 0 1 .5.21.73.73 0 0 1 0 1.03.7.7 0 0 1-.5.21h-2.42a.7.7 0 0 1-.5-.21.73.73 0 0 1 0-1.03.7.7 0 0 1 .5-.21Z"/></svg>
