<svg xmlns="http://www.w3.org/2000/svg" viewBox="0 0 80 80"><g clip-path="url(#a)"><path fill="#A88D88" d="M60 43.5c-13.5 6.5 10.5 16-9 15-14.636 0-35 2.5-34.5-5C16.5 38.864 9.364 32 24 32c22 5 40-7.5 36 11.5Z"/><path fill="url(#b)" fill-opacity=".1" d="M60 43.5c-13.5 6.5 10.5 16-9 15-14.636 0-35 2.5-34.5-5C16.5 38.864 9.364 32 24 32c22 5 40-7.5 36 11.5Z"/><path fill="#2C2928" d="M80 16.774C80 7.524 72.475 0 63.226 0c-9.25 0-16.774 7.525-16.774 16.774 0 5.97 3.135 11.22 7.844 14.194h-9.238l-1.29-15.484H41.29v-3.871c0-4.98-4.052-9.032-9.032-9.032s-9.032 4.052-9.032 9.032v3.87h-2.478l-1.29 15.485h-3.1l-.699-9.322a3.887 3.887 0 0 0-3.86-3.581H3.871A3.875 3.875 0 0 0 0 21.935a3.875 3.875 0 0 0 3.87 3.871h9.514l2.798 37.314a9.036 9.036 0 0 0-4.569 7.848c0 4.98 4.052 9.032 9.032 9.032 4.542 0 8.31-3.37 8.939-7.742h13.09C43.302 76.63 47.071 80 51.613 80c4.98 0 9.032-4.052 9.032-9.032s-4.052-9.032-9.032-9.032c-4.542 0-8.31 3.37-8.939 7.741h-13.09c-.628-4.37-4.396-7.741-8.939-7.741-.669 0-1.32.075-1.948.214l-.21-2.795h41.36l.357.713a3.36 3.36 0 0 0 3.022 1.868 3.36 3.36 0 0 0 3.021-1.868l8.099-16.197h-5.96V32.735C75.12 30.553 80 24.223 80 16.775ZM3.87 23.226c-.71 0-1.29-.58-1.29-1.29 0-.712.58-1.29 1.29-1.29h7.93c.67 0 1.236.523 1.286 1.193l.104 1.387H3.87Zm47.743 41.29a6.459 6.459 0 0 1 6.452 6.452 6.459 6.459 0 0 1-6.452 6.451 6.459 6.459 0 0 1-6.452-6.451 6.459 6.459 0 0 1 6.452-6.452Zm-24.516 6.452a6.459 6.459 0 0 1-6.452 6.451 6.459 6.459 0 0 1-6.451-6.451 6.459 6.459 0 0 1 6.451-6.452 6.459 6.459 0 0 1 6.452 6.452Zm21.935-54.194c0-7.826 6.367-14.193 14.194-14.193 7.826 0 14.193 6.367 14.193 14.193 0 7.827-6.367 14.194-14.193 14.194-7.827 0-14.194-6.367-14.194-14.194Zm4.364 29.678h-4.364V38.71h9.032v5.16h-5.958l1.29 2.582ZM16.94 38.71h8.867v7.742H17.52l-.58-7.742Zm11.448 0h7.742v7.742h-7.742V38.71Zm7.742 10.322v7.742h-7.742v-7.742h7.742Zm2.58 0h7.743v7.742H38.71v-7.742Zm0-2.58V38.71h7.743v7.742H38.71ZM25.807 11.613a6.459 6.459 0 0 1 6.452-6.452 6.459 6.459 0 0 1 6.451 6.452v3.87H25.806v-3.87Zm-2.683 6.451h18.27l1.076 12.904H22.048l1.075-12.904Zm34.941 15.484v2.581H16.746l-.194-2.58h41.513Zm-40.35 15.484h8.093v7.742h-7.513l-.58-7.742Zm31.318 7.742v-7.742h5.654l3.871 7.742h-9.525ZM70.17 46.452l-6.23 12.462a.793.793 0 0 1-.714.44.794.794 0 0 1-.714-.44l-6.23-12.462h4.363V33.35a16.814 16.814 0 0 0 5.161 0v13.102h4.364Z"/><path fill="#2C2928" d="M71.74 10.293a1.09 1.09 0 0 1 0 1.414l-9.778 11a.82.82 0 0 1-1.257 0l-4.445-5a1.09 1.09 0 0 1 0-1.414.82.82 0 0 1 1.257 0l3.816 4.293 9.15-10.293a.82.82 0 0 1 1.257 0Z"/><path fill="#2C2928" d="M70.109 9.96a1.32 1.32 0 0 1 2.004 0 1.59 1.59 0 0 1 0 2.08l-9.777 11a1.32 1.32 0 0 1-2.005 0l-4.444-5a1.59 1.59 0 0 1 0-2.08 1.32 1.32 0 0 1 2.004 0l3.442 3.873 8.776-9.872Zm1.257.665c-.148-.167-.362-.167-.51 0l-9.149 10.293a.5.5 0 0 1-.747 0l-3.816-4.293c-.148-.167-.362-.167-.51 0a.591.591 0 0 0 0 .75l4.444 5c.149.167.362.167.51 0l9.778-11a.591.591 0 0 0 0-.75Z"/><path fill="#2C2928" d="M20.645 74.839a3.875 3.875 0 0 0 3.871-3.871 3.875 3.875 0 0 0-3.87-3.871 3.875 3.875 0 0 0-3.872 3.87 3.875 3.875 0 0 0 3.871 3.872Zm0-5.162c.712 0 1.29.58 1.29 1.29 0 .712-.578 1.291-1.29 1.291-.711 0-1.29-.579-1.29-1.29 0-.712.579-1.29 1.29-1.29Zm30.968 5.162a3.875 3.875 0 0 0 3.87-3.871 3.875 3.875 0 0 0-3.87-3.871 3.875 3.875 0 0 0-3.871 3.87 3.875 3.875 0 0 0 3.871 3.872Zm0-5.162c.711 0 1.29.58 1.29 1.29 0 .712-.579 1.291-1.29 1.291-.711 0-1.29-.579-1.29-1.29 0-.712.578-1.29 1.29-1.29ZM0 33.548h11.613v2.581H0v-2.58Zm2.58 5.162h9.033v2.58H2.58v-2.58ZM0 43.87h12.903v2.58H0v-2.58Zm2.58 5.161h9.033v2.58H2.58v-2.58ZM0 54.194h12.903v2.58H0v-2.58Z"/></g><defs><linearGradient id="b" x1="34.406" x2="62.713" y1="80" y2="52.416" gradientUnits="userSpaceOnUse"><stop stop-color="#fff" stop-opacity="0"/><stop offset=".438" stop-color="#fff"/><stop offset="1" stop-color="#fff" stop-opacity="0"/></linearGradient><clipPath id="a"><path fill="#fff" d="M0 0h80v80H0z"/></clipPath></defs></svg>
