<svg xmlns="http://www.w3.org/2000/svg" width="80" height="80" fill="none"><g clip-path="url(#a)"><path fill="#A88D88" d="M7 48h28v26H7z"/><path fill="url(#b)" fill-opacity=".1" d="M7 48h28v26H7z"/><path fill="#2C2928" d="M5.162 74.839h30.967V46.452H5.162V74.84Zm2.58-25.806H33.55v23.225H7.742V49.033Z"/><path fill="#EDE9E6" d="m20.5 55 7.361 11.25H13.14L20.5 55Z"/><path fill="#A88D88" d="M54.5 56 61 37h12v26H45v-9.5l9.5 2.5Z"/><path fill="url(#c)" fill-opacity=".1" d="M54.5 56 61 37h12v26H45v-9.5l9.5 2.5Z"/><path fill="#A88D88" d="m32.643 16.46 26.602 8.738L51.132 49.9l-6.65-2.184L39.5 46V32.5l-12-1.5 5.143-14.54Z"/><path fill="url(#d)" fill-opacity=".1" d="m32.643 16.46 26.602 8.738L51.132 49.9l-6.65-2.184L39.5 46V32.5l-12-1.5 5.143-14.54Z"/><path fill="#EDE9E6" d="m59.5 43 6.495 3.75v7.5L59.5 58 55 55l2-6.5 2.5-5.5ZM50 34c0 3.866-2.134 7-6 7-5 3-2-8.5-8.5-9 0-3.866 3.634-5 7.5-5a7 7 0 0 1 7 7Z"/><path fill="#2C2928" d="M76.129 20.646h-8.365l1.731-5.457a3.845 3.845 0 0 0-.253-2.952 3.846 3.846 0 0 0-2.266-1.909L34.999.183a3.845 3.845 0 0 0-2.952.253 3.845 3.845 0 0 0-1.908 2.266l-1.171 3.69 3.69 1.17a1.292 1.292 0 0 1-.28 2.517 1.282 1.282 0 0 1-.5-.057l-3.69-1.17-7.017 22.116H3.87a3.875 3.875 0 0 0-3.87 3.871v3.871h3.87c.712 0 1.29.58 1.29 1.29 0 .712-.578 1.29-1.29 1.29H.001V76.13A3.875 3.875 0 0 0 3.87 80H37.42a3.875 3.875 0 0 0 3.871-3.871v-6.673c.415.147.851.222 1.29.221H76.13a3.875 3.875 0 0 0 3.87-3.87v-41.29a3.875 3.875 0 0 0-3.87-3.87Zm0 2.58c.711 0 1.29.58 1.29 1.291v3.871H65.308l1.637-5.161h9.184ZM29.867 12.093l1.23.39a3.844 3.844 0 0 0 2.952-.253 3.846 3.846 0 0 0 1.908-2.266 3.876 3.876 0 0 0-2.519-4.86l-1.23-.39.39-1.23c.105-.33.33-.597.636-.756.306-.159.656-.188.985-.084l31.977 10.145a1.285 1.285 0 0 1 .84 1.62l-1.171 3.69-27.058-8.585-.78 2.46 27.057 8.585L54.55 53.765a1.28 1.28 0 0 1-.636.755 1.283 1.283 0 0 1-.984.085L41.29 50.912v-2.707l11.19 3.55 8.584-27.058-29.518-9.365-4.96 15.637h-2.708l5.989-18.877Zm16.585 43.165 5.697 1.807a3.84 3.84 0 0 0 2.761-.161l4.445 2.667 7.742-4.645v-9.203l-6.123-3.674 1.059-3.338h10.225v23.226H46.452v-6.68Zm13.72-10.68 4.344 2.606v6.28l-5.162 3.097-2.542-1.525c.075-.158.143-.32.197-.49l3.163-9.969Zm-18.882-2.09c.426.062.857.094 1.29.094 4.981 0 9.033-4.052 9.033-9.032s-4.052-9.032-9.032-9.032a8.998 8.998 0 0 0-8.656 6.452h-4.632l3.933-12.397 24.598 7.804L50.8 48.514l-9.51-3.017v-3.01Zm1.29-15.39a6.459 6.459 0 0 1 6.452 6.452 6.459 6.459 0 0 1-7.742 6.321v-5.03a3.875 3.875 0 0 0-3.87-3.871h-.755c1.001-2.312 3.29-3.871 5.916-3.871ZM38.71 76.13c0 .712-.58 1.29-1.29 1.29H3.87c-.711 0-1.29-.578-1.29-1.29V43.872h1.29A3.875 3.875 0 0 0 7.742 40a3.875 3.875 0 0 0-3.87-3.871h-1.29v-1.29c0-.712.578-1.29 1.29-1.29h33.547c.712 0 1.29.578 1.29 1.29v3.87H10.324v2.581h28.386V76.13Zm37.419-9.032H42.58c-.712 0-1.29-.579-1.29-1.29V53.619l2.58.82v10.078h30.967V36.13H62.851l1.638-5.162h12.93v34.839c0 .711-.579 1.29-1.29 1.29Z"/><path fill="#2C2928" d="M9.135 68.387h23.02l-11.51-16.443-11.51 16.443Zm4.956-2.58 6.554-9.363 6.554 9.363H14.091Z"/></g><defs><linearGradient id="b" x1="19.011" x2="43.461" y1="94.394" y2="79.323" gradientUnits="userSpaceOnUse"><stop stop-color="#fff" stop-opacity="0"/><stop offset=".438" stop-color="#fff"/><stop offset="1" stop-color="#fff" stop-opacity="0"/></linearGradient><linearGradient id="c" x1="57.011" x2="81.461" y1="83.394" y2="68.323" gradientUnits="userSpaceOnUse"><stop stop-color="#fff" stop-opacity="0"/><stop offset=".438" stop-color="#fff"/><stop offset="1" stop-color="#fff" stop-opacity="0"/></linearGradient><linearGradient id="d" x1="29.577" x2="57.509" y1="64.286" y2="57.598" gradientUnits="userSpaceOnUse"><stop stop-color="#fff" stop-opacity="0"/><stop offset=".438" stop-color="#fff"/><stop offset="1" stop-color="#fff" stop-opacity="0"/></linearGradient><clipPath id="a"><path fill="#fff" d="M0 0h80v80H0z"/></clipPath></defs></svg>
