<svg xmlns="http://www.w3.org/2000/svg" viewBox="0 0 80 80"><path fill="#A88D88" d="M21 27.57a2 2 0 0 1 3.36-1.47L27.5 29l11.3 8.14a2 2 0 0 0 2.38-.02L52 29l3.7-3.17a2 2 0 0 1 3.3 1.52V46a2 2 0 0 1-2 2H23a2 2 0 0 1-2-2V27.57Z"/><path fill="url(#a)" fill-opacity=".1" d="M21 27.57a2 2 0 0 1 3.36-1.47L27.5 29l11.3 8.14a2 2 0 0 0 2.38-.02L52 29l3.7-3.17a2 2 0 0 1 3.3 1.52V46a2 2 0 0 1-2 2H23a2 2 0 0 1-2-2V27.57Z"/><path fill="#2C2928" d="M71.71 59a1.62 1.62 0 0 1-1.62-1.61V17.52a2.43 2.43 0 0 0-2.42-2.43H12.33a2.43 2.43 0 0 0-2.42 2.43v39.87a1.62 1.62 0 0 1-3.24 0V17.52a5.67 5.67 0 0 1 5.66-5.67h55.34a5.67 5.67 0 0 1 5.66 5.67v39.87A1.62 1.62 0 0 1 71.71 59Z"/><path fill="#2C2928" d="M71.32 66.15H8.68c-.6 0-.93 0-6.6-4.4a1.6 1.6 0 0 1-.23-.23 3.66 3.66 0 0 1-.5-3.9 3.03 3.03 0 0 1 2.73-1.85h71.84c1.16 0 2.2.7 2.73 1.84a3.66 3.66 0 0 1-.5 3.91c-.07.08-.15.16-.24.22-5.66 4.4-5.99 4.4-6.59 4.4ZM9.07 62.9h61.86c.78-.5 2.94-2.13 4.8-3.57a.56.56 0 0 0 0-.34H4.27a.56.56 0 0 0 0 .34c1.86 1.44 4.02 3.06 4.8 3.57Zm45.86-13.42H25.07a6.6 6.6 0 0 1-6.59-6.6V27.97a6.6 6.6 0 0 1 6.6-6.6h29.85a6.6 6.6 0 0 1 6.59 6.6v14.92a6.6 6.6 0 0 1-6.6 6.6ZM25.07 24.6a3.36 3.36 0 0 0-3.35 3.36v14.92a3.36 3.36 0 0 0 3.35 3.36h29.86a3.36 3.36 0 0 0 3.35-3.36V27.97a3.36 3.36 0 0 0-3.35-3.36H25.07ZM33.58 75H31v2.58h2.58V75ZM38.74 75h-2.58v2.58h2.58V75ZM43.9 75h-2.58v2.58h2.58V75ZM49.06 75h-2.58v2.58h2.58V75Z"/><path fill="#2C2928" d="M40 39.51a4.1 4.1 0 0 1-2.53-.87l-16.73-13.1a1.62 1.62 0 0 1 2-2.54L39.46 36.1a.87.87 0 0 0 1.08 0L57.26 23a1.62 1.62 0 1 1 2 2.55L42.53 38.64a4.1 4.1 0 0 1-2.53.87Z"/><path fill="#2C2928" d="M58.33 48.14c-.39 0-.76-.14-1.05-.4L43.69 36.09a1.62 1.62 0 1 1 2.1-2.46L59.4 45.3a1.62 1.62 0 0 1-1.06 2.85Zm-36.66 0a1.62 1.62 0 0 1-1.05-2.85L34.2 33.62a1.62 1.62 0 0 1 2.11 2.46L22.72 47.75c-.29.25-.66.39-1.05.39Z"/><defs><linearGradient id="a" x1="37.3" x2="63.36" y1="67.61" y2="44.94" gradientUnits="userSpaceOnUse"><stop stop-color="#fff" stop-opacity="0"/><stop offset=".44" stop-color="#fff"/><stop offset="1" stop-color="#fff" stop-opacity="0"/></linearGradient></defs></svg>
