<svg xmlns="http://www.w3.org/2000/svg" viewBox="0 0 80 80"><g clip-path="url(#a)"><path fill="#EDE9E6" d="M13.5 62.5h10V62l4 .5-2 .5H29l3.7-3-1.2 2.5L32 78H12V62.5h2-.5Z"/><path fill="#A88D88" d="M13.5 62.5h10V62l4 .5-2 .5H29l3.7-3-1.2 2.5L32 78H12V62.5h2-.5Z"/><path fill="url(#b)" fill-opacity=".1" d="M13.5 62.5h10V62l4 .5-2 .5H29l3.7-3-1.2 2.5L32 78H12V62.5h2-.5Z"/><path fill="#EDE9E6" d="M13 14h3.8l1.2 4 2.5 2 2.5-2 1.3-4H28v16h-7.5l-2-2h-3L13 26V14Z"/><path fill="#A88D88" d="M13 14h3.8l1.2 4 2.5 2 2.5-2 1.3-4H28v16h-7.5l-2-2h-3L13 26V14Z"/><path fill="url(#c)" fill-opacity=".1" d="M13 14h3.8l1.2 4 2.5 2 2.5-2 1.3-4H28v16h-7.5l-2-2h-3L13 26V14Z"/><path fill="#2C2928" d="M46.5 69.7H49v2.6h-2.5v-2.6Zm5.1 0h2.6v2.6h-2.6v-2.6Zm5.2 0h2.6v2.6h-2.6v-2.6Zm5.1 0h2.6v2.6H62v-2.6ZM55.5 18a16.8 16.8 0 1 0 0 33.6 16.8 16.8 0 0 0 0-33.6Zm0 2.5c4.7 0 8.8 2.3 11.4 5.9l-5.2 4.3-6.2-2.7-14 9.3-.2-2.6c0-7.8 6.4-14.2 14.2-14.2Zm9 25.2c-.8.6-1.6 1.2-2.6 1.7L63.1 33l1.4-1v13.8Zm-17-9.7 2.7-1.7-1.2 13c-.9-.4-1.8-1-2.5-1.6l1-9.7Zm5.2-3.4 2.6-1.7-1.1 18a14 14 0 0 1-2.6-.5l1.1-15.8ZM58 31l2.6 2-1.1 15.4-2.6.5L57.9 31Zm-15.6 9 2.7-2.3v4c-.6-.9-2.3-.7-2.7-1.8ZM67 43V29.7l1.2-1A14 14 0 0 1 67 43Z"/><path fill="#2C2928" d="M77.3 42.6H80V27h-2.7c-.8 0-1.1-.6-1.2-.8 0-.2-.3-.8.3-1.4l1.9-2-11-10.9-1.9 2c-.5.5-1.2.3-1.4.2-.2 0-.8-.4-.8-1.2v-2.7H47.7V13c0 .8-.6 1.1-.8 1.2-.1.1-.8.3-1.4-.3L44 12.3V6.5c0-3.6-3-6.5-6.5-6.5h-31A6.5 6.5 0 0 0 0 6.5v56.7c0 3.6 2.9 6.5 6.5 6.5H11L10.2 80h23.5l-.9-10.3h4.6c3.6 0 6.5-3 6.5-6.5v-6l1.6-1.6c.6-.5 1.3-.3 1.5-.2.1 0 .7.4.7 1.2v2.8h15.5v-2.8c0-.8.6-1 .8-1.1.2-.1.9-.3 1.4.2l2 2 10.9-11-2-2c-.5-.5-.3-1.1-.2-1.3 0-.2.4-.8 1.2-.8ZM6.5 67a3.9 3.9 0 0 1-4-3.9V6.5c0-2.2 1.8-4 4-4h31c2 0 3.8 1.8 3.8 4v7.9l-2.6 2.5v-6.6c0-1.4-1.1-2.6-2.6-2.6H7.7a2.6 2.6 0 0 0-2.5 2.6v27.1h2.5v-27h28.4v9.1L32.7 23l1.9 1.9c.6.6.3 1.2.3 1.4-.1.2-.4.8-1.2.8H31v11.8h-.2a3.8 3.8 0 0 0-6.3-1.9 3.8 3.8 0 0 0-3.9-.6V31h6.5c1.4 0 2.6-1.2 2.6-2.6v-13c0-1.3-1.2-2.5-2.6-2.5h-13a2.6 2.6 0 0 0-2.5 2.6v12.9c0 1 .5 1.8 1.3 2.2v8.8c-.8-.4-1.6-.7-2.6-.7a2.6 2.6 0 0 0-2.6 2.6v12.6c0 3.6 1.4 7 3.9 9.8l-.3 3.4H6.5Zm23.9-5.2h-17c-2-2.2-3-5-3-8V41.3c1.3 0 2.5 1.1 2.5 2.6v2.6h2.6V29.7a1.3 1.3 0 0 1 2.6 0v16.8h2.5V40a1.3 1.3 0 0 1 2.6 0v6.5h2.6V40a1.3 1.3 0 0 1 2.6 0v6.5H31v-4a1.3 1.3 0 0 1 2.5 0V54c0 3-1 5.8-3.1 8Zm-11-46.4h2.5V18h-2.5v-2.6Zm0 5.1h2.5c1.5 0 2.6-1.1 2.6-2.5v-2.6h2.6v12.9h-6.7c-.5-1.5-2-2.6-3.6-2.6-1 0-2 .4-2.6 1V15.5h2.6V18c0 1.4 1.1 2.5 2.6 2.5ZM13 77.4l1-12.9h15.8l1 13H13Zm24.4-10.3h-4.8l-.3-3.4c2.5-2.7 3.8-6.2 3.8-9.8v-4.3l5.2 5.1v8.5c0 2.2-1.7 3.9-3.9 3.9Zm36.3-24.7c-.6 1.5-.3 3 .9 4.2v.1L67.3 54a3.8 3.8 0 0 0-4.3-1c-1.4.7-2.4 2-2.4 3.6v.2H50.3v-.2c0-1.6-.9-3-2.4-3.6-1.4-.6-2.9-.3-4 .7L36 45.9v-3.3c0-1.7-1-3.1-2.6-3.7v-9.2h.2c1.6 0 3-1 3.6-2.4.6-1.5.2-3.1-.9-4.2V23l7.2-7.3h.1a3.8 3.8 0 0 0 4.2 1c1.5-.7 2.4-2 2.4-3.7V13h10.3v.1c0 1.6 1 3 2.4 3.6 1.5.6 3.1.3 4.3-.8v-.1l7.3 7.3a3.8 3.8 0 0 0-.9 4.3c.6 1.5 2 2.4 3.6 2.4h.1V40h-.1c-1.6 0-3 1-3.6 2.4Z"/><ellipse cx="55.5" cy="35" fill="#EDE9E6" rx="14.5" ry="14"/><path fill="#2C2928" fill-rule="evenodd" d="M63.2 28.8c.4.4.4 1 0 1.4l-9.7 11c-.4.4-1 .4-1.3 0l-4.4-5a1 1 0 0 1 0-1.4c.3-.4.9-.4 1.2 0l3.8 4.3L62 28.8c.3-.4.9-.4 1.2 0Z" clip-rule="evenodd"/><path fill="#2C2928" fill-rule="evenodd" d="M61.6 28.5c.6-.7 1.5-.7 2 0 .5.5.5 1.5 0 2l-9.8 11c-.5.7-1.4.7-2 0l-4.4-5c-.5-.5-.5-1.5 0-2 .5-.7 1.4-.7 2 0l3.4 3.8 8.8-9.8Zm1.3.6h-.5l-9.2 10.3a.5.5 0 0 1-.7 0l-3.9-4.3h-.5c-.1.2-.1.6 0 .8l4.5 5h.5l9.8-11c.1-.2.1-.6 0-.8Z" clip-rule="evenodd"/></g><defs><linearGradient id="b" x1="20.2" x2="49" y1="117.6" y2="109.1" gradientUnits="userSpaceOnUse"><stop stop-color="#fff" stop-opacity="0"/><stop offset=".4" stop-color="#fff"/><stop offset="1" stop-color="#fff" stop-opacity="0"/></linearGradient><linearGradient id="c" x1="19.4" x2="33.5" y1="42.6" y2="35" gradientUnits="userSpaceOnUse"><stop stop-color="#fff" stop-opacity="0"/><stop offset=".4" stop-color="#fff"/><stop offset="1" stop-color="#fff" stop-opacity="0"/></linearGradient><clipPath id="a"><path fill="#fff" d="M0 0h80v80H0z"/></clipPath></defs></svg>
