<svg xmlns="http://www.w3.org/2000/svg" viewBox="0 0 322 322"><path fill="#5C5855" d="M76.97 205.91h16.86l6.93-37.15c-5.09 5.53-12.17 12.73-16.48 19.17-4.64 6.95-6.04 13.01-7.31 17.98zm203.31-77.94h-30c-.93 5.97-3.18 11.83-6.16 17.37h19.11l-3.86 20.71h-31.23l-.28.31-.51.55-.04.05-.02.02-.45.49-.09.1-.16.17-.26.28-.14.15-.12.12-.42.45-.02.02-.08.08-1.04 1.1-.03.02-.5.52-.07.07-.02.02-.54.56-.04.04-.53.53-.04.04-.1.1-.47.47-.02.02-.05.06-.54.53v.01l-.55.54-.05.04-1.18 1.15-.02.02-.13.13-.28.27-.2.18-.08.08-.53.51-.03.03-.49.46-.07.07-.02.02-.27.24-.28.27-.07.06-.06.06-.44.41-.12.11-.16.15-.42.38-.05.04-.11.11-.29.26-.22.2-.06.06-.52.47-.05.05h-.01l-.04.04-.54.48-.05.04-.04.04-.5.44-.09.09-.49.43-.15.13-.04.03-.59.52-.01.01-.09.08-.3.26-.26.22-.03.03-.3.26-.3.25-.01.02-.28.24-.6.5h59.84c7.68 0 15.08-6.23 16.52-13.91l5.17-27.73c1.41-7.57-3.66-13.8-11.34-13.8zM178.15 105.64V89.18h-16.16v16.46s33.6.37 33.98 0c.38-.38 0 17.06 0 17.06h-17.82v-17.06z"/><path fill="#5C5855" d="M159.88 140.21h18.27V122.7h-18.27zM106.43 232.18c19.73-3.67 41.48-11.03 62.1-21h-9.33c-18.95 8.61-38.14 14.28-53.53 14.51-58.22.87-13.17-48.93 16.47-75.08h-5.82c-35.08 31.36-84.26 91.75-9.89 81.57zm86.58-34.45 2.3-1.44c22.21-14.16 64.68-48.96 60.45-78.42-.98-6.6-5.28-21.29-42.28-16.3v6.34s32.77-3.47 29.6 22.04c-2.41 24.84-28.68 48.1-48.94 61.74l-1.13 6.04z"/><path fill="currentColor" d="M134.38 127.97H33.88l-3.24 17.37h46.77l-10.55 56.49a88.76 88.76 0 0 1 3.9-7.15c7.65-12.65 18.3-24.77 28.71-35.3 1.23-1.25 2.48-2.49 3.73-3.72l1.93-10.32h37.25v-7.4h-8v-9.97zm103.6 0h-54.56v17.52h-13.74l-11.28 60.42h27.73l3.23-17.35v-.01l.96-5.14h6.45a164.37 164.37 0 0 0 20.36-17.36h-23.57l3.87-20.71h35.38l.36-.71.16-.33.36-.72.14-.31.36-.77.12-.27.35-.82.09-.21.34-.84.1-.25.32-.84.08-.21.31-.88.06-.17.29-.91.04-.13.29-.97.03-.11.26-.97.03-.11.23-1 .01-.04.22-1.04.01-.06c.07-.35.13-.69.18-1.04l.01-.02.15-1.05v-.05c.05-.35.09-.71.12-1.06l.01-.08.01-.07v-.02l.01-.02v-.02l.02-.23.01-.03v-.06l.01-.02v-.06l.03-.27v-.05l.03-.27v-.08l.01-.02v-.04l.01-.14zM139.65 132.66h16v-16.15h-16zm8 17.97h10.87v-10.42h-10.87zm52.24-43.33h8.01v-8.76h-8.01z"/></svg>
